# xmcd
#
# Track frame offsets: 
#        150
#        9606
#        19095
#        30608
#
# Disc length: 606 seconds
#
# Revision: 0
# Processed by: cddbd v1.4PL0 Copyright (c) Steve Scherf et al.
# Submitted via: ExactAudioCopy v0.90b2
#
DISCID=24025c04
DTITLE=The Judds - The Early Sessions (1978)
DYEAR=1900
DGENRE=Country
TTITLE0=Kentucky
TTITLE1=Hillbilly Boogie
TTITLE2=Let Me Be Your Baby
TTITLE3=Oatmeal Cookies
EXTD=
EXTT0=
EXTT1=
EXTT2=
EXTT3=
PLAYORDER=
